<svg width="36" height="38" viewBox="0 0 36 38" fill="none" xmlns="http://www.w3.org/2000/svg">
<rect opacity="0.3" x="3.25586" y="5.47241" width="28.1236" height="28" rx="1" fill="white"/>
<path fill-rule="evenodd" clip-rule="evenodd" d="M5.93828 10.5493C5.93828 10.9646 5.60012 11.3013 5.18301 11.3013C4.76579 11.3013 4.42773 10.9646 4.42773 10.5493V7.39111C4.42773 6.97573 4.76579 6.63916 5.18301 6.63916H8.35495C8.77216 6.63916 9.11022 6.97573 9.11022 7.39111C9.11022 7.80639 8.77216 8.14307 8.35495 8.14307H5.93828V10.5493ZM16.361 26.6912C15.9438 26.6912 15.6058 26.3546 15.6058 25.9393C15.6058 25.5239 15.9438 25.1873 16.361 25.1873H17.0156C17.4327 25.1873 17.7709 25.5239 17.7709 25.9393C17.7709 26.3546 17.4327 26.6912 17.0156 26.6912H16.361ZM16.9149 16.6652C16.9149 17.0805 16.5767 17.4172 16.1596 17.4172C15.7424 17.4172 15.4044 17.0805 15.4044 16.6652V16.0135C15.4044 15.5981 15.7424 15.2616 16.1596 15.2616C16.5767 15.2616 16.9149 15.5981 16.9149 16.0135V16.6652ZM21.5472 25.0871C21.13 25.0871 20.792 24.7504 20.792 24.3351C20.792 23.9197 21.13 23.5832 21.5472 23.5832H22.2018C22.6189 23.5832 22.9571 23.9197 22.9571 24.3351C22.9571 24.7504 22.6189 25.0871 22.2018 25.0871H21.5472ZM5.96345 20.2244H9.47799C9.46792 20.2731 9.46288 20.3233 9.46288 20.3748V22.6307C9.46288 23.046 9.80094 23.3826 10.2182 23.3826C10.6353 23.3826 10.9734 23.046 10.9734 22.6307V20.3748C10.9734 20.3233 10.9684 20.2731 10.9583 20.2244H17.6198V21.0767H13.6421C13.2248 21.0767 12.8868 21.4132 12.8868 21.8286C12.8868 22.2439 13.2248 22.5806 13.6421 22.5806H18.3751C18.7922 22.5806 19.1304 22.2439 19.1304 21.8286V20.2244H21.95V22.4302C21.95 22.8455 22.2881 23.1821 22.7053 23.1821C23.1224 23.1821 23.4606 22.8455 23.4606 22.4302V20.2244H28.672C29.0891 20.2244 29.4272 19.8878 29.4272 19.4725C29.4272 19.0571 29.0891 18.7205 28.672 18.7205H25.2229V17.2668H25.9782C26.3953 17.2668 26.7334 16.9301 26.7334 16.5148C26.7334 16.0994 26.3953 15.7629 25.9782 15.7629H22.2018C21.7846 15.7629 21.4465 16.0994 21.4465 16.5148C21.4465 16.9301 21.7846 17.2668 22.2018 17.2668H23.7124V18.7205H19.1304V16.7655C19.1304 16.3501 18.7922 16.0135 18.3751 16.0135C17.9579 16.0135 17.6198 16.3501 17.6198 16.7655V18.7205H5.96345C5.54624 18.7205 5.20818 19.0571 5.20818 19.4725C5.20818 19.8878 5.54624 20.2244 5.96345 20.2244ZM19.0297 11.0005C19.0297 10.5851 19.3677 10.2485 19.7849 10.2485C20.202 10.2485 20.5402 10.5851 20.5402 11.0005V14.9608C20.5402 15.3761 20.202 15.7127 19.7849 15.7127C19.3677 15.7127 19.0297 15.3761 19.0297 14.9608V11.0005ZM14.5484 11.3013H16.2603V11.0005C16.2603 10.5851 16.5984 10.2485 17.0156 10.2485C17.4327 10.2485 17.7709 10.5851 17.7709 11.0005V13.507C17.7709 13.9223 17.4327 14.259 17.0156 14.259C16.5984 14.259 16.2603 13.9223 16.2603 13.507V12.8052H14.5484V13.1561C14.5484 13.5714 14.2102 13.908 13.7931 13.908C13.3759 13.908 13.0378 13.5714 13.0378 13.1561V11.0005C13.0378 10.5851 13.3759 10.2485 13.7931 10.2485C14.2102 10.2485 14.5484 10.5851 14.5484 11.0005V11.3013ZM8.506 17.2166C8.08899 17.2166 7.75073 16.88 7.75073 16.4647C7.75073 16.0493 8.08899 15.7127 8.506 15.7127H14.0952C14.5123 15.7127 14.8505 16.0493 14.8505 16.4647C14.8505 16.88 14.5123 17.2166 14.0952 17.2166H8.506ZM24.9711 27.1925V27.9445C24.9711 28.3598 25.3092 28.6965 25.7264 28.6965C26.1435 28.6965 26.4817 28.3598 26.4817 27.9445V23.4328C26.4817 23.0177 26.1435 22.6808 25.7264 22.6808C25.3092 22.6808 24.9711 23.0177 24.9711 23.4328V25.6886H22.4536C22.0364 25.6886 21.6983 26.0255 21.6983 26.4406C21.6983 26.8559 22.0364 27.1925 22.4536 27.1925H24.9711ZM17.2674 28.6965H19.5332C19.9503 28.6965 20.2885 28.3598 20.2885 27.9445V24.0845C20.2885 23.6691 19.9503 23.3325 19.5332 23.3325C19.116 23.3325 18.7779 23.6691 18.7779 24.0845V27.1925H17.2674C16.8501 27.1925 16.5121 27.5291 16.5121 27.9445C16.5121 28.3598 16.8501 28.6965 17.2674 28.6965ZM13.0882 24.1346C13.0882 23.7192 13.4262 23.3826 13.8435 23.3826C14.2606 23.3826 14.5987 23.7192 14.5987 24.1346V26.3403C14.5987 26.7556 14.2606 27.0923 13.8435 27.0923C13.4262 27.0923 13.0882 26.7556 13.0882 26.3403V24.1346ZM8.5062 24.0343H11.6783C12.0955 24.0343 12.4336 24.3709 12.4336 24.7863V27.9445C12.4336 28.3598 12.0955 28.6965 11.6783 28.6965H8.5062C8.08899 28.6965 7.75093 28.3598 7.75093 27.9445V24.7863C7.75093 24.3709 8.08899 24.0343 8.5062 24.0343ZM10.9231 25.5382H9.26148V27.1925H10.9231V25.5382ZM22.9571 10.2485H26.1292C26.5463 10.2485 26.8845 10.5851 26.8845 11.0005V14.1587C26.8845 14.574 26.5463 14.9106 26.1292 14.9106H22.9571C22.5399 14.9106 22.2018 14.574 22.2018 14.1587V11.0005C22.2018 10.5851 22.5399 10.2485 22.9571 10.2485ZM25.3739 11.7524H23.7124V13.4067H25.3739V11.7524ZM8.5062 10.2485C8.08899 10.2485 7.75093 10.5851 7.75093 11.0005V14.1587C7.75093 14.574 8.08899 14.9106 8.5062 14.9106H11.6783C12.0955 14.9106 12.4336 14.574 12.4336 14.1587V11.0005C12.4336 10.5851 12.0955 10.2485 11.6783 10.2485H8.5062ZM10.9231 11.7524V13.4067H9.26148V11.7524H10.9231ZM28.6971 28.3957C28.6971 27.9803 29.0352 27.6437 29.4524 27.6437C29.8695 27.6437 30.2077 27.9803 30.2077 28.3957V31.5539C30.2077 31.9692 29.8695 32.3058 29.4524 32.3058H26.2804C25.8634 32.3058 25.5251 31.9692 25.5251 31.5539C25.5251 31.1385 25.8634 30.8019 26.2804 30.8019H28.6971V28.3957ZM4.42773 28.3957V31.5539C4.42773 31.9692 4.76579 32.3058 5.18301 32.3058H8.35495C8.77216 32.3058 9.11022 31.9692 9.11022 31.5539C9.11022 31.1385 8.77216 30.8019 8.35495 30.8019H5.93828V28.3957C5.93828 27.9803 5.60012 27.6437 5.18301 27.6437C4.76579 27.6437 4.42773 27.9803 4.42773 28.3957ZM30.2077 10.5493V7.39111C30.2077 6.97573 29.8695 6.63916 29.4524 6.63916H26.2804C25.8634 6.63916 25.5251 6.97573 25.5251 7.39111C25.5251 7.80639 25.8634 8.14307 26.2804 8.14307H28.6971V10.5493C28.6971 10.9646 29.0352 11.3013 29.4524 11.3013C29.8695 11.3013 30.2077 10.9646 30.2077 10.5493Z" fill="white"/>
<path opacity="0.2" fill-rule="evenodd" clip-rule="evenodd" d="M2.10938 5.70527C2.10938 6.31119 1.63716 6.80243 1.05469 6.80243C0.472078 6.80243 0 6.31119 0 5.70527V1.09717C0 0.491092 0.472078 0 1.05469 0H5.48409C6.0667 0 6.53878 0.491092 6.53878 1.09717C6.53878 1.7031 6.0667 2.19433 5.48409 2.19433H2.10938V5.70527ZM33.8906 31.7447C33.8906 31.1386 34.3627 30.6475 34.9453 30.6475C35.5278 30.6475 36 31.1386 36 31.7447V36.3528C36 36.9587 35.5278 37.45 34.9453 37.45H30.5158C29.9334 37.45 29.4611 36.9587 29.4611 36.3528C29.4611 35.7467 29.9334 35.2556 30.5158 35.2556H33.8906V31.7447ZM0 31.7447V36.3528C0 36.9587 0.472078 37.45 1.05469 37.45H5.48409C6.0667 37.45 6.53878 36.9587 6.53878 36.3528C6.53878 35.7467 6.0667 35.2556 5.48409 35.2556H2.10938V31.7447C2.10938 31.1386 1.63716 30.6475 1.05469 30.6475C0.472078 30.6475 0 31.1386 0 31.7447ZM36 5.70527V1.09717C36 0.491092 35.5278 0 34.9453 0H30.5158C29.9334 0 29.4611 0.491092 29.4611 1.09717C29.4611 1.7031 29.9334 2.19433 30.5158 2.19433H33.8906V5.70527C33.8906 6.31119 34.3627 6.80243 34.9453 6.80243C35.5278 6.80243 36 6.31119 36 5.70527Z" fill="white"/>
</svg>
