<svg width="13" height="12" viewBox="0 0 13 12" fill="none" xmlns="http://www.w3.org/2000/svg">
<path d="M6.50037 12C9.80878 12 12.5 9.30862 12.5 6C12.5 5.7343 12.2851 5.51934 12.0194 5.51934C11.7537 5.51934 11.5387 5.7343 11.5387 6C11.5387 8.77796 9.2789 11.0387 6.50037 11.0387C3.72184 11.0387 1.46201 8.77796 1.46201 6C1.46201 3.22204 3.72258 0.961314 6.50037 0.961314C7.90941 0.961314 9.23563 1.55542 10.1775 2.56002L9.50803 2.38089C9.25129 2.31223 8.98784 2.46449 8.91992 2.72123C8.85126 2.97798 9.00351 3.24145 9.26024 3.30937L11.1298 3.80868C11.1708 3.81988 11.2126 3.8251 11.2536 3.8251C11.3499 3.8251 11.4447 3.79599 11.5253 3.74076C11.538 3.73181 11.5492 3.72061 11.5611 3.71016C11.7641 3.58851 11.8447 3.34071 11.7604 3.12502L11.9291 1.5584C11.9574 1.29419 11.7664 1.05759 11.5022 1.02923C11.2387 1.00087 11.0014 1.19194 10.973 1.45615L10.92 1.948C9.79609 0.724717 8.19899 0 6.49963 0C3.19122 0 0.5 2.69138 0.5 6C0.5 9.30862 3.19195 12 6.50037 12Z" fill="#0066CC"/>
</svg>
