<svg width="305" height="39" viewBox="0 0 305 39" fill="none" xmlns="http://www.w3.org/2000/svg">
<path d="M51.7988 12.9961V27H49.7969V12.9961H51.7988ZM57.4043 27H55.4023V12.9961H57.4043L65.8223 23.8555V12.9961H67.8242V27H65.8223L57.4043 16.1406V27ZM71.418 14.998C71.418 14.7246 71.4701 14.4674 71.5742 14.2266C71.6784 13.9792 71.8216 13.7676 72.0039 13.5918C72.1862 13.4095 72.3978 13.2663 72.6387 13.1621C72.8861 13.0514 73.1465 12.9961 73.4199 12.9961H81.0176C81.291 12.9961 81.5482 13.0514 81.7891 13.1621C82.0365 13.2663 82.2513 13.4095 82.4336 13.5918C82.6159 13.7676 82.7591 13.9792 82.8633 14.2266C82.9674 14.4674 83.0195 14.7246 83.0195 14.998V16.8047H81.0176V14.998H73.4199V24.998H81.0176V23.2012H83.0195V24.998C83.0195 25.2715 82.9674 25.5319 82.8633 25.7793C82.7591 26.0202 82.6159 26.2318 82.4336 26.4141C82.2513 26.5964 82.0365 26.7396 81.7891 26.8438C81.5482 26.9479 81.291 27 81.0176 27H73.4199C73.1465 27 72.8861 26.9479 72.6387 26.8438C72.3978 26.7396 72.1862 26.5964 72.0039 26.4141C71.8216 26.2318 71.6784 26.0202 71.5742 25.7793C71.4701 25.5319 71.418 25.2715 71.418 24.998V14.998ZM88.2246 12.9961V27H86.2227V12.9961H88.2246ZM98.9473 24.998C99.8783 24.998 100.594 24.7474 101.096 24.2461C101.597 23.7448 101.848 23.0286 101.848 22.0977V17.8984C101.848 17.4427 101.783 17.0358 101.652 16.6777C101.522 16.3197 101.33 16.0169 101.076 15.7695C100.829 15.5156 100.526 15.3236 100.168 15.1934C99.8099 15.0632 99.403 14.998 98.9473 14.998H93.8301V24.998H98.9473ZM91.8281 27V12.9961H98.9473C99.696 12.9961 100.37 13.1133 100.969 13.3477C101.574 13.5755 102.089 13.9043 102.512 14.334C102.941 14.7572 103.27 15.2715 103.498 15.877C103.732 16.4824 103.85 17.1562 103.85 17.8984V22.0977C103.85 22.8398 103.732 23.5137 103.498 24.1191C103.27 24.7246 102.941 25.2422 102.512 25.6719C102.089 26.0951 101.574 26.4238 100.969 26.6582C100.37 26.8861 99.696 27 98.9473 27H91.8281ZM107.062 12.9961H117.268V14.998H109.064V19.002H116.066V21.0039H109.064V24.998H117.268V27H107.062V12.9961ZM122.268 27H120.266V12.9961H122.268L130.686 23.8555V12.9961H132.688V27H130.686L122.268 16.1406V27ZM135.08 12.9961H146.281V14.998H141.682V27H139.68V14.998H135.08V12.9961ZM161.906 27L156.682 16.7363V27H154.68V12.9961H156.867L162.199 23.543L167.541 12.9961H169.719V27H167.727V16.7363L162.502 27H161.906ZM179.533 12.9961L184.934 27H182.932L181.691 23.7773H175.373L174.133 27H172.131L177.531 12.9961H179.533ZM176.135 21.7754H180.92L178.537 15.6035L176.135 21.7754ZM189.338 27H187.336V12.9961H189.338L197.756 23.8555V12.9961H199.758V27H197.756L189.338 16.1406V27ZM209.553 12.9961L214.953 27H212.951L211.711 23.7773H205.393L204.152 27H202.15L207.551 12.9961H209.553ZM206.154 21.7754H210.939L208.557 15.6035L206.154 21.7754ZM217.355 14.998C217.355 14.7246 217.408 14.4674 217.512 14.2266C217.616 13.9792 217.759 13.7676 217.941 13.5918C218.124 13.4095 218.335 13.2663 218.576 13.1621C218.824 13.0514 219.084 12.9961 219.357 12.9961H226.955C227.229 12.9961 227.486 13.0514 227.727 13.1621C227.974 13.2663 228.189 13.4095 228.371 13.5918C228.553 13.7676 228.697 13.9792 228.801 14.2266C228.905 14.4674 228.957 14.7246 228.957 14.998V16.8047H226.955V14.998H219.357V24.998H226.955V21.5996H223.156V19.5977H228.957V24.998C228.957 25.2715 228.905 25.5319 228.801 25.7793C228.697 26.0202 228.553 26.2318 228.371 26.4141C228.189 26.5964 227.974 26.7396 227.727 26.8438C227.486 26.9479 227.229 27 226.955 27H219.357C219.084 27 218.824 26.9479 218.576 26.8438C218.335 26.7396 218.124 26.5964 217.941 26.4141C217.759 26.2318 217.616 26.0202 217.512 25.7793C217.408 25.5319 217.355 25.2715 217.355 24.998V14.998ZM232.551 12.9961H242.756V14.998H234.553V19.002H241.555V21.0039H234.553V24.998H242.756V27H232.551V12.9961ZM252.98 27L247.756 16.7363V27H245.754V12.9961H247.941L253.273 23.543L258.615 12.9961H260.793V27H258.801V16.7363L253.576 27H252.98ZM264.406 12.9961H274.611V14.998H266.408V19.002H273.41V21.0039H266.408V24.998H274.611V27H264.406V12.9961ZM279.611 27H277.609V12.9961H279.611L288.029 23.8555V12.9961H290.031V27H288.029L279.611 16.1406V27ZM292.424 12.9961H303.625V14.998H299.025V27H297.023V14.998H292.424V12.9961Z" fill="white"/>
<path d="M18.2621 26.6302H15.7373V29.9429H18.2621V26.6302Z" fill="#DD1E24"/>
<path d="M18.8307 11.8003H15.1692L15.6923 25.3582H18.3077L18.8307 11.8003Z" fill="#DD1E24"/>
<path d="M31.6926 29.6996C33.2022 27.2149 34 24.3728 34 21.4807C34 18.1133 32.9331 14.9809 31.1072 12.3784L33.5906 9.9936C34.0834 9.52025 34.0834 8.75291 33.5906 8.27955L30.29 5.11007C29.8038 4.64318 28.9909 4.64318 28.5046 5.11007L25.9241 7.58823C23.6654 6.24469 21.0569 5.39453 18.2624 5.19635V2.42387H21.8812V0H12.1188V2.42387H15.7376V5.19635C12.9431 5.39453 10.3346 6.24469 8.07593 7.58823L5.49538 5.11007C5.00919 4.64318 4.19614 4.64318 3.70996 5.11007L0.409431 8.27955C-0.083485 8.75291 -0.083485 9.52025 0.409431 9.9936L2.89278 12.3784C1.06688 14.9808 0 18.1133 0 21.4807C0 30.4846 7.62618 37.8099 17 37.8099C21.9024 37.8099 26.5671 35.7758 29.7979 32.2293L27.8976 30.6333C25.1462 33.6535 21.1741 35.3857 17 35.3857C9.01833 35.3857 2.52475 29.1479 2.52475 21.4806C2.52475 13.8134 9.01833 7.57563 17 7.57563C24.9817 7.57563 31.4752 13.8134 31.4752 21.4807C31.4752 23.9441 30.7963 26.3638 29.5117 28.4781L31.6926 29.6996ZM4.46073 10.4555L3.08735 9.13658L4.60262 7.68138L6.00403 9.02719C5.45919 9.47154 4.94389 9.94844 4.46073 10.4555ZM29.5393 10.4555C29.0561 9.94844 28.5408 9.47154 27.9959 9.02719L29.3973 7.68138L30.9126 9.13658L29.5393 10.4555Z" fill="white"/>
<path d="M21.0974 31.2437H28.9436V38.7222" stroke="white" stroke-width="2"/>
</svg>
